<svg xmlns="http://www.w3.org/2000/svg" width="1024" height="1024" viewBox="0 0 1024 1024" version="1.1"><path d="M 507.223 178.557 L 505 180.113 505 221.057 L 505 262 454.250 262.012 C 426.337 262.019, 370.200 262.014, 329.500 262.001 C 249.160 261.975, 250.005 261.923, 238.850 267.576 C 232.088 271.003, 224.772 277.968, 220.434 285.109 C 214.054 295.611, 214.037 295.874, 214.017 381.693 L 214 458.887 216.223 460.443 C 217.445 461.299, 220.344 462, 222.666 462 C 230.316 462, 230 464.422, 230 405.777 L 230 354 389.365 354 L 548.730 354 551.365 351.927 C 554.214 349.687, 554.948 344.640, 552.965 340.934 C 551.948 339.034, 549.082 339, 390.890 339 L 229.850 339 230.175 319.250 C 230.493 299.951, 230.564 299.370, 233.303 293.792 C 236.094 288.109, 240.284 284.008, 247 280.387 C 250.393 278.558, 256.825 278.491, 457 278.208 C 570.575 278.047, 665.374 278.181, 667.664 278.506 C 673.046 279.270, 680.490 285.689, 683.239 291.937 C 684.860 295.622, 685.252 298.712, 685.275 308 C 685.311 321.899, 683.278 327.824, 676.399 333.880 L 672.076 337.685 657.788 338.339 C 649.930 338.699, 638.282 338.994, 631.905 338.996 C 621.945 338.999, 620.077 339.258, 618.655 340.829 C 616.332 343.395, 616.522 349.522, 619 352 C 620.969 353.969, 622.333 354, 707.500 354 L 794 354 794 373.878 C 794 396.451, 794.017 396.500, 801.742 396.500 C 805.196 396.500, 806.599 395.978, 808.088 394.139 C 809.905 391.896, 809.999 389.638, 809.983 348.639 C 809.964 301.764, 809.532 296.931, 804.475 286.952 C 800.837 279.771, 793.152 271.893, 786.142 268.156 C 774.020 261.696, 781.033 262, 644.322 262 L 520.065 262 519.783 221.411 L 519.500 180.822 517.139 178.911 C 514.280 176.597, 510.228 176.452, 507.223 178.557 M 265.299 296.960 C 256.622 302.250, 256.984 316.838, 265.906 321.451 C 275.141 326.227, 286.005 319.429, 285.996 308.882 C 285.987 297.918, 274.540 291.325, 265.299 296.960 M 307.641 296.898 C 303.513 299.620, 301.014 303.933, 301.007 308.349 C 300.982 322.726, 316.965 328.149, 326.381 316.959 C 331.228 311.198, 329.355 301.016, 322.701 296.960 C 318.543 294.424, 311.437 294.395, 307.641 296.898 M 350.299 296.960 C 341.398 302.387, 342.064 316.955, 351.417 321.394 C 364.350 327.531, 377.117 313.788, 369.880 301.521 C 368.713 299.544, 366.486 297.268, 364.929 296.463 C 360.936 294.398, 354.120 294.629, 350.299 296.960 M 725.789 301.363 C 723.039 303.452, 721.928 307.495, 723.144 310.984 C 724.348 314.436, 726.641 316, 730.500 316 C 734.292 316, 736.549 314.504, 737.984 311.038 C 739.457 307.482, 737.974 302.592, 734.929 300.962 C 732.415 299.617, 727.823 299.818, 725.789 301.363 M 389 303 C 386.386 305.614, 386.288 312.046, 388.829 314.345 C 390.472 315.832, 395.095 316, 434.329 316 C 477.465 316, 478.026 315.974, 480.116 313.884 C 481.822 312.178, 482.126 310.973, 481.682 307.669 C 481.380 305.415, 480.342 302.992, 479.375 302.285 C 478.008 301.285, 468.008 301, 434.309 301 C 392.333 301, 390.938 301.062, 389 303 M 287.478 371.788 C 263.345 383.456, 262.818 416.383, 286.577 428.077 C 290.652 430.083, 292.964 430.492, 300 430.452 C 307.182 430.412, 309.292 429.994, 313.608 427.757 C 331.887 418.285, 336.669 394.858, 323.348 380.042 C 316.922 372.895, 310.449 369.776, 301 369.274 C 294.308 368.919, 292.851 369.190, 287.478 371.788 M 295 383.169 C 291.067 384.280, 286.525 388.153, 284.411 392.200 C 282.504 395.850, 282.630 403.419, 284.669 407.715 C 291.798 422.739, 315.176 418.631, 316.767 402.074 C 317.023 399.412, 316.702 395.628, 316.055 393.667 C 314.594 389.241, 309.271 384.447, 304.277 383.060 C 299.914 381.848, 299.665 381.851, 295 383.169 M 353.128 385.345 C 351.014 387.893, 350.660 392.832, 352.400 395.488 L 354.046 398 415.832 398 C 485.044 398, 481.455 398.383, 481.455 391 C 481.455 383.618, 485.033 384, 415.931 384 C 365.471 384, 354.042 384.245, 353.128 385.345 M 611.500 391.417 C 604.875 394.374, 599.999 403.165, 601.552 409.352 C 602.137 411.682, 596.131 417.885, 546.385 466.329 L 534.270 478.127 529.385 475.029 C 519.725 468.901, 509.635 467.513, 499.673 470.940 C 489.353 474.491, 482.416 480.495, 477.195 490.393 C 474.791 494.952, 474.501 496.573, 474.501 505.500 C 474.500 514.413, 474.802 516.116, 477.281 521.164 C 485.273 537.438, 504.402 545.708, 521.119 540.116 C 539.780 533.873, 550.092 514.143, 544.513 495.355 L 543.025 490.347 560.763 472.905 C 611.758 422.760, 611.455 423.044, 613.001 424.022 C 615.819 425.803, 624.271 425.098, 628.425 422.734 C 633.276 419.973, 637 413.357, 637 407.500 C 637 401.643, 633.276 395.027, 628.425 392.266 C 623.898 389.690, 616.231 389.306, 611.500 391.417 M 354.313 418.786 C 351.001 420.891, 350.698 428.255, 353.819 430.750 C 355.797 432.332, 390.160 432.520, 393.066 430.965 C 394.563 430.164, 395 428.852, 395 425.165 C 395 422.544, 394.460 419.860, 393.800 419.200 C 392.446 417.846, 356.386 417.467, 354.313 418.786 M 407.200 419.200 C 406.540 419.860, 406 422.544, 406 425.165 C 406 428.852, 406.437 430.164, 407.934 430.965 C 409.183 431.633, 425.423 432, 453.779 432 C 495.049 432, 497.790 431.890, 499.345 430.171 C 500.255 429.165, 501 426.723, 501 424.743 C 501 417.732, 502.901 418, 453.129 418 C 419.673 418, 408.098 418.302, 407.200 419.200 M 684.569 439.758 C 675.731 448.424, 662.875 460.917, 656 467.519 C 649.125 474.121, 636.413 486.359, 627.750 494.714 L 612 509.906 612 544.953 C 612 579.308, 612.042 580.042, 614.116 582.116 C 615.794 583.794, 617.044 584.123, 620.155 583.706 C 627.313 582.746, 627 584.379, 627 548.037 L 627 515.318 637.231 505.208 L 647.463 495.097 655.481 502.802 C 659.892 507.040, 670.813 517.580, 679.750 526.223 L 696 541.939 696.015 560.719 C 696.024 571.049, 696.361 579.995, 696.765 580.600 C 699.161 584.188, 705.600 584.958, 709.139 582.080 C 711.490 580.168, 711.499 580.078, 711.228 561.009 L 710.956 541.858 734.228 519.089 C 747.028 506.565, 759.188 494.851, 761.250 493.056 C 764.354 490.355, 765 489.138, 765 485.989 C 765 482.363, 764.194 481.420, 747.766 465.842 C 738.287 456.854, 724.593 443.762, 717.334 436.750 C 710.075 429.738, 703.349 424, 702.386 424 C 701.424 424, 693.406 431.091, 684.569 439.758 M 680.096 464.218 L 658.693 485.375 679.596 505.695 C 691.093 516.871, 701.257 526.461, 702.182 527.006 C 703.570 527.824, 707.636 524.305, 725.446 506.868 C 743.518 489.175, 746.829 485.499, 745.803 484.263 C 742.923 480.792, 703.075 443.003, 702.325 443.031 C 701.871 443.048, 691.868 452.582, 680.096 464.218 M 290.994 447.886 C 281.987 450.801, 274.257 458.055, 271.008 466.642 C 269.205 471.408, 268.889 473.830, 269.310 479.633 C 269.904 487.810, 271.496 491.413, 277.295 497.704 C 283.797 504.759, 289.884 507.436, 299.500 507.471 C 306.107 507.495, 308.458 507.043, 313 504.877 C 319.388 501.831, 324.037 497.497, 327.810 491.069 C 330.148 487.084, 330.492 485.413, 330.496 478 C 330.501 467.952, 328.401 462.688, 321.764 456.117 C 315.543 449.958, 309.929 447.575, 301 447.303 C 296.875 447.177, 292.372 447.439, 290.994 447.886 M 353.828 459.036 C 350.371 461.054, 350.734 468.787, 354.400 471.235 C 355.005 471.639, 370.812 471.976, 389.527 471.985 C 428.125 472.002, 428 472.025, 428 465.015 C 428 457.811, 429.006 457.996, 390.179 458.030 C 369.507 458.049, 354.825 458.455, 353.828 459.036 M 293.741 461.429 C 288.805 463.190, 287.266 464.558, 284.818 469.358 C 283.272 472.386, 282.889 474.644, 283.226 478.716 C 283.723 484.701, 285.842 488.237, 291.092 491.838 C 293.978 493.817, 295.456 494.116, 300.739 493.791 C 307.656 493.365, 311.013 491.501, 314.750 486.010 C 317.416 482.093, 317.793 474.435, 315.536 470.069 C 313.510 466.152, 308.648 462.274, 304.219 461.044 C 299.517 459.738, 298.361 459.781, 293.741 461.429 M 796.223 467.557 L 794 469.113 794 553.557 L 794 638 512 638 L 230 638 230 563.573 L 230 489.145 227.365 487.073 C 223.859 484.314, 218.667 484.367, 216.039 487.189 C 214.372 488.977, 214 490.713, 214 496.689 L 214 504 169.500 504 C 126.333 504, 124.940 504.060, 123 506 C 120.463 508.537, 120.354 514.105, 122.797 516.317 C 124.391 517.758, 129.650 517.975, 169.047 518.222 L 213.500 518.500 214 613 L 214.500 707.500 217.482 713.500 C 221.362 721.309, 231.774 731.791, 239 735.164 C 242.025 736.576, 246.885 738.242, 249.799 738.866 C 253.541 739.667, 283.264 740, 350.906 740 L 446.713 740 440.969 768.750 C 437.810 784.563, 434.683 800.763, 434.022 804.750 L 432.819 812 420.860 812 C 407.477 812, 404.057 813.055, 401.517 817.967 C 398.216 824.351, 400.926 833.165, 407.275 836.693 C 409 837.652, 432.672 837.937, 512.715 837.965 L 615.930 838 619.404 834.950 C 626.153 829.024, 626.596 820.486, 620.434 815.076 L 616.930 812 604.533 812 C 593.585 812, 592.075 811.795, 591.627 810.250 C 591.158 808.631, 585.216 781.243, 579.423 754 C 578.078 747.675, 576.772 741.938, 576.520 741.250 C 576.165 740.280, 580.052 740, 593.897 740 C 610.424 740, 611.923 739.848, 614.365 737.927 C 617.837 735.197, 617.796 728.924, 614.281 725 C 614.035 724.725, 531.858 724.275, 431.667 724 L 249.500 723.500 244.621 721.008 C 241.938 719.638, 238.250 716.773, 236.425 714.642 C 230.572 707.804, 230 704.479, 230 677.311 L 230 652.978 465.750 652.987 C 595.413 652.992, 722.313 653.294, 747.750 653.658 L 794 654.320 794 676.979 C 794 702.856, 793.250 707.012, 787.331 713.927 C 785.065 716.573, 781.252 719.385, 777.558 721.132 L 771.500 723.998 708.973 723.999 C 640.403 724, 642.865 723.784, 641.516 729.928 C 640.787 733.245, 642.983 738.396, 645.545 739.379 C 648.318 740.443, 767.272 740.085, 773.114 738.995 C 786.677 736.463, 799.767 726.346, 806.070 713.522 L 809.500 706.544 810 612.522 L 810.500 518.500 855 518.227 C 895.187 517.981, 899.621 517.793, 900.750 516.286 C 902.442 514.028, 902.274 508.947, 900.426 506.500 C 898.961 504.560, 897.575 504.492, 854.458 504.220 L 810 503.940 810 486.970 C 810 471.333, 809.843 469.843, 808 468 C 805.557 465.557, 799.408 465.325, 796.223 467.557 M 501.444 484.886 C 496.310 487.218, 490.297 494.185, 488.878 499.447 C 486.707 507.493, 489.876 518.397, 495.722 522.996 C 506.811 531.720, 522.920 528.641, 529.286 516.581 C 530.892 513.539, 531.448 510.697, 531.470 505.422 C 531.496 499.265, 531.107 497.708, 528.485 493.466 C 522.842 484.339, 510.953 480.567, 501.444 484.886 M 353.203 491.256 C 351.087 493.805, 350.734 497.944, 352.413 500.507 L 354.046 503 372.952 503 C 393.978 503, 395 502.702, 395 496.584 C 395 490.425, 393.567 490, 372.794 490 C 359.131 490, 353.970 490.331, 353.203 491.256 M 415.407 490.765 C 413.762 491.872, 412.924 497.669, 414 500.500 L 414.950 503 431.275 503 C 442.639 503, 447.965 502.635, 448.800 501.800 C 449.460 501.140, 450 498.755, 450 496.500 C 450 494.245, 449.460 491.860, 448.800 491.200 C 447.462 489.862, 417.334 489.470, 415.407 490.765 M 288.214 532.135 C 280.985 534.913, 273.810 542.233, 270.987 549.711 C 265.183 565.084, 273.231 583.201, 288.381 588.869 C 303.473 594.516, 320.448 588.296, 327.482 574.542 C 330.109 569.406, 330.498 567.595, 330.485 560.571 C 330.467 550.733, 328.373 545.608, 321.591 538.805 C 313.135 530.323, 299.844 527.667, 288.214 532.135 M 354.171 538.750 C 351.205 541.281, 350.897 546.755, 353.571 549.429 C 354.948 550.805, 360.157 551, 395.637 551 C 419.990 551, 436.857 550.612, 437.951 550.026 C 441.925 547.899, 441.545 540.025, 437.376 538.125 C 435.679 537.352, 422.586 537, 395.564 537 C 359.543 537, 356.048 537.148, 354.171 538.750 M 292.425 545.019 C 286.551 547.927, 283.678 552.297, 283.188 559.074 C 282.538 568.060, 287.274 574.824, 295.700 576.946 C 311.933 581.034, 323.807 560.887, 312.382 548.639 C 307.036 542.908, 299.464 541.534, 292.425 545.019 M 353.573 570.570 C 351.131 573.012, 350.512 577.039, 352.134 579.931 L 353.575 582.500 374.037 582.780 C 393.906 583.051, 394.551 582.997, 396.250 580.919 C 398.417 578.268, 398.499 574.158, 396.443 571.223 C 394.923 569.053, 394.416 569, 375.015 569 C 358.291 569, 354.894 569.249, 353.573 570.570 M 502.183 664.841 C 484.049 671.313, 478.962 695.273, 492.946 708.353 C 507.741 722.191, 532.102 716.217, 537.569 697.410 C 543.790 676.012, 523.417 657.262, 502.183 664.841 M 506.077 678.773 C 502.593 680.689, 499 686.015, 499 689.267 C 499 692.882, 501.963 698.007, 505.190 699.974 C 513.588 705.094, 524.273 699.431, 524.273 689.860 C 524.273 680.610, 514.059 674.386, 506.077 678.773 M 455.608 773.750 C 451.890 792.313, 448.608 808.513, 448.315 809.750 L 447.783 812 511.892 812 C 556.125 812, 576 811.673, 576 810.947 C 576 810.367, 573.299 797.430, 569.998 782.197 C 566.697 766.964, 563.291 751.237, 562.430 747.250 L 560.864 740 511.615 740 L 462.367 740 455.608 773.750" stroke="none" fill="#2d3240" fill-rule="evenodd"/><path d="M 0 512.001 L 0 1024.002 512.250 1023.751 L 1024.500 1023.500 1024.751 511.750 L 1025.002 0 512.501 0 L 0 0 0 512.001 M 0.496 512.500 C 0.496 794.100, 0.610 909.151, 0.750 768.168 C 0.890 627.186, 0.890 396.786, 0.750 256.168 C 0.610 115.551, 0.496 230.900, 0.496 512.500 M 507.223 178.557 L 505 180.113 505 221.057 L 505 262 454.250 262.012 C 426.337 262.019, 370.200 262.014, 329.500 262.001 C 249.160 261.975, 250.005 261.923, 238.850 267.576 C 232.088 271.003, 224.772 277.968, 220.434 285.109 C 214.054 295.611, 214.037 295.874, 214.017 381.693 L 214 458.887 216.223 460.443 C 217.445 461.299, 220.344 462, 222.666 462 C 230.316 462, 230 464.422, 230 405.777 L 230 354 389.365 354 L 548.730 354 551.365 351.927 C 554.214 349.687, 554.948 344.640, 552.965 340.934 C 551.948 339.034, 549.082 339, 390.890 339 L 229.850 339 230.175 319.250 C 230.493 299.951, 230.564 299.370, 233.303 293.792 C 236.094 288.109, 240.284 284.008, 247 280.387 C 250.393 278.558, 256.825 278.491, 457 278.208 C 570.575 278.047, 665.374 278.181, 667.664 278.506 C 673.046 279.270, 680.490 285.689, 683.239 291.937 C 684.860 295.622, 685.252 298.712, 685.275 308 C 685.311 321.899, 683.278 327.824, 676.399 333.880 L 672.076 337.685 657.788 338.339 C 649.930 338.699, 638.282 338.994, 631.905 338.996 C 621.945 338.999, 620.077 339.258, 618.655 340.829 C 616.332 343.395, 616.522 349.522, 619 352 C 620.969 353.969, 622.333 354, 707.500 354 L 794 354 794 373.878 C 794 396.451, 794.017 396.500, 801.742 396.500 C 805.196 396.500, 806.599 395.978, 808.088 394.139 C 809.905 391.896, 809.999 389.638, 809.983 348.639 C 809.964 301.764, 809.532 296.931, 804.475 286.952 C 800.837 279.771, 793.152 271.893, 786.142 268.156 C 774.020 261.696, 781.033 262, 644.322 262 L 520.065 262 519.783 221.411 L 519.500 180.822 517.139 178.911 C 514.280 176.597, 510.228 176.452, 507.223 178.557 M 265.299 296.960 C 256.622 302.250, 256.984 316.838, 265.906 321.451 C 275.141 326.227, 286.005 319.429, 285.996 308.882 C 285.987 297.918, 274.540 291.325, 265.299 296.960 M 307.641 296.898 C 303.513 299.620, 301.014 303.933, 301.007 308.349 C 300.982 322.726, 316.965 328.149, 326.381 316.959 C 331.228 311.198, 329.355 301.016, 322.701 296.960 C 318.543 294.424, 311.437 294.395, 307.641 296.898 M 350.299 296.960 C 341.398 302.387, 342.064 316.955, 351.417 321.394 C 364.350 327.531, 377.117 313.788, 369.880 301.521 C 368.713 299.544, 366.486 297.268, 364.929 296.463 C 360.936 294.398, 354.120 294.629, 350.299 296.960 M 725.789 301.363 C 723.039 303.452, 721.928 307.495, 723.144 310.984 C 724.348 314.436, 726.641 316, 730.500 316 C 734.292 316, 736.549 314.504, 737.984 311.038 C 739.457 307.482, 737.974 302.592, 734.929 300.962 C 732.415 299.617, 727.823 299.818, 725.789 301.363 M 389 303 C 386.386 305.614, 386.288 312.046, 388.829 314.345 C 390.472 315.832, 395.095 316, 434.329 316 C 477.465 316, 478.026 315.974, 480.116 313.884 C 481.822 312.178, 482.126 310.973, 481.682 307.669 C 481.380 305.415, 480.342 302.992, 479.375 302.285 C 478.008 301.285, 468.008 301, 434.309 301 C 392.333 301, 390.938 301.062, 389 303 M 287.478 371.788 C 263.345 383.456, 262.818 416.383, 286.577 428.077 C 290.652 430.083, 292.964 430.492, 300 430.452 C 307.182 430.412, 309.292 429.994, 313.608 427.757 C 331.887 418.285, 336.669 394.858, 323.348 380.042 C 316.922 372.895, 310.449 369.776, 301 369.274 C 294.308 368.919, 292.851 369.190, 287.478 371.788 M 295 383.169 C 291.067 384.280, 286.525 388.153, 284.411 392.200 C 282.504 395.850, 282.630 403.419, 284.669 407.715 C 291.798 422.739, 315.176 418.631, 316.767 402.074 C 317.023 399.412, 316.702 395.628, 316.055 393.667 C 314.594 389.241, 309.271 384.447, 304.277 383.060 C 299.914 381.848, 299.665 381.851, 295 383.169 M 353.128 385.345 C 351.014 387.893, 350.660 392.832, 352.400 395.488 L 354.046 398 415.832 398 C 485.044 398, 481.455 398.383, 481.455 391 C 481.455 383.618, 485.033 384, 415.931 384 C 365.471 384, 354.042 384.245, 353.128 385.345 M 611.500 391.417 C 604.875 394.374, 599.999 403.165, 601.552 409.352 C 602.137 411.682, 596.131 417.885, 546.385 466.329 L 534.270 478.127 529.385 475.029 C 519.725 468.901, 509.635 467.513, 499.673 470.940 C 489.353 474.491, 482.416 480.495, 477.195 490.393 C 474.791 494.952, 474.501 496.573, 474.501 505.500 C 474.500 514.413, 474.802 516.116, 477.281 521.164 C 485.273 537.438, 504.402 545.708, 521.119 540.116 C 539.780 533.873, 550.092 514.143, 544.513 495.355 L 543.025 490.347 560.763 472.905 C 611.758 422.760, 611.455 423.044, 613.001 424.022 C 615.819 425.803, 624.271 425.098, 628.425 422.734 C 633.276 419.973, 637 413.357, 637 407.500 C 637 401.643, 633.276 395.027, 628.425 392.266 C 623.898 389.690, 616.231 389.306, 611.500 391.417 M 354.313 418.786 C 351.001 420.891, 350.698 428.255, 353.819 430.750 C 355.797 432.332, 390.160 432.520, 393.066 430.965 C 394.563 430.164, 395 428.852, 395 425.165 C 395 422.544, 394.460 419.860, 393.800 419.200 C 392.446 417.846, 356.386 417.467, 354.313 418.786 M 407.200 419.200 C 406.540 419.860, 406 422.544, 406 425.165 C 406 428.852, 406.437 430.164, 407.934 430.965 C 409.183 431.633, 425.423 432, 453.779 432 C 495.049 432, 497.790 431.890, 499.345 430.171 C 500.255 429.165, 501 426.723, 501 424.743 C 501 417.732, 502.901 418, 453.129 418 C 419.673 418, 408.098 418.302, 407.200 419.200 M 684.569 439.758 C 675.731 448.424, 662.875 460.917, 656 467.519 C 649.125 474.121, 636.413 486.359, 627.750 494.714 L 612 509.906 612 544.953 C 612 579.308, 612.042 580.042, 614.116 582.116 C 615.794 583.794, 617.044 584.123, 620.155 583.706 C 627.313 582.746, 627 584.379, 627 548.037 L 627 515.318 637.231 505.208 L 647.463 495.097 655.481 502.802 C 659.892 507.040, 670.813 517.580, 679.750 526.223 L 696 541.939 696.015 560.719 C 696.024 571.049, 696.361 579.995, 696.765 580.600 C 699.161 584.188, 705.600 584.958, 709.139 582.080 C 711.490 580.168, 711.499 580.078, 711.228 561.009 L 710.956 541.858 734.228 519.089 C 747.028 506.565, 759.188 494.851, 761.250 493.056 C 764.354 490.355, 765 489.138, 765 485.989 C 765 482.363, 764.194 481.420, 747.766 465.842 C 738.287 456.854, 724.593 443.762, 717.334 436.750 C 710.075 429.738, 703.349 424, 702.386 424 C 701.424 424, 693.406 431.091, 684.569 439.758 M 680.096 464.218 L 658.693 485.375 679.596 505.695 C 691.093 516.871, 701.257 526.461, 702.182 527.006 C 703.570 527.824, 707.636 524.305, 725.446 506.868 C 743.518 489.175, 746.829 485.499, 745.803 484.263 C 742.923 480.792, 703.075 443.003, 702.325 443.031 C 701.871 443.048, 691.868 452.582, 680.096 464.218 M 290.994 447.886 C 281.987 450.801, 274.257 458.055, 271.008 466.642 C 269.205 471.408, 268.889 473.830, 269.310 479.633 C 269.904 487.810, 271.496 491.413, 277.295 497.704 C 283.797 504.759, 289.884 507.436, 299.500 507.471 C 306.107 507.495, 308.458 507.043, 313 504.877 C 319.388 501.831, 324.037 497.497, 327.810 491.069 C 330.148 487.084, 330.492 485.413, 330.496 478 C 330.501 467.952, 328.401 462.688, 321.764 456.117 C 315.543 449.958, 309.929 447.575, 301 447.303 C 296.875 447.177, 292.372 447.439, 290.994 447.886 M 353.828 459.036 C 350.371 461.054, 350.734 468.787, 354.400 471.235 C 355.005 471.639, 370.812 471.976, 389.527 471.985 C 428.125 472.002, 428 472.025, 428 465.015 C 428 457.811, 429.006 457.996, 390.179 458.030 C 369.507 458.049, 354.825 458.455, 353.828 459.036 M 293.741 461.429 C 288.805 463.190, 287.266 464.558, 284.818 469.358 C 283.272 472.386, 282.889 474.644, 283.226 478.716 C 283.723 484.701, 285.842 488.237, 291.092 491.838 C 293.978 493.817, 295.456 494.116, 300.739 493.791 C 307.656 493.365, 311.013 491.501, 314.750 486.010 C 317.416 482.093, 317.793 474.435, 315.536 470.069 C 313.510 466.152, 308.648 462.274, 304.219 461.044 C 299.517 459.738, 298.361 459.781, 293.741 461.429 M 796.223 467.557 L 794 469.113 794 553.557 L 794 638 512 638 L 230 638 230 563.573 L 230 489.145 227.365 487.073 C 223.859 484.314, 218.667 484.367, 216.039 487.189 C 214.372 488.977, 214 490.713, 214 496.689 L 214 504 169.500 504 C 126.333 504, 124.940 504.060, 123 506 C 120.463 508.537, 120.354 514.105, 122.797 516.317 C 124.391 517.758, 129.650 517.975, 169.047 518.222 L 213.500 518.500 214 613 L 214.500 707.500 217.482 713.500 C 221.362 721.309, 231.774 731.791, 239 735.164 C 242.025 736.576, 246.885 738.242, 249.799 738.866 C 253.541 739.667, 283.264 740, 350.906 740 L 446.713 740 440.969 768.750 C 437.810 784.563, 434.683 800.763, 434.022 804.750 L 432.819 812 420.860 812 C 407.477 812, 404.057 813.055, 401.517 817.967 C 398.216 824.351, 400.926 833.165, 407.275 836.693 C 409 837.652, 432.672 837.937, 512.715 837.965 L 615.930 838 619.404 834.950 C 626.153 829.024, 626.596 820.486, 620.434 815.076 L 616.930 812 604.533 812 C 593.585 812, 592.075 811.795, 591.627 810.250 C 591.158 808.631, 585.216 781.243, 579.423 754 C 578.078 747.675, 576.772 741.938, 576.520 741.250 C 576.165 740.280, 580.052 740, 593.897 740 C 610.424 740, 611.923 739.848, 614.365 737.927 C 617.837 735.197, 617.796 728.924, 614.281 725 C 614.035 724.725, 531.858 724.275, 431.667 724 L 249.500 723.500 244.621 721.008 C 241.938 719.638, 238.250 716.773, 236.425 714.642 C 230.572 707.804, 230 704.479, 230 677.311 L 230 652.978 465.750 652.987 C 595.413 652.992, 722.313 653.294, 747.750 653.658 L 794 654.320 794 676.979 C 794 702.856, 793.250 707.012, 787.331 713.927 C 785.065 716.573, 781.252 719.385, 777.558 721.132 L 771.500 723.998 708.973 723.999 C 640.403 724, 642.865 723.784, 641.516 729.928 C 640.787 733.245, 642.983 738.396, 645.545 739.379 C 648.318 740.443, 767.272 740.085, 773.114 738.995 C 786.677 736.463, 799.767 726.346, 806.070 713.522 L 809.500 706.544 810 612.522 L 810.500 518.500 855 518.227 C 895.187 517.981, 899.621 517.793, 900.750 516.286 C 902.442 514.028, 902.274 508.947, 900.426 506.500 C 898.961 504.560, 897.575 504.492, 854.458 504.220 L 810 503.940 810 486.970 C 810 471.333, 809.843 469.843, 808 468 C 805.557 465.557, 799.408 465.325, 796.223 467.557 M 501.444 484.886 C 496.310 487.218, 490.297 494.185, 488.878 499.447 C 486.707 507.493, 489.876 518.397, 495.722 522.996 C 506.811 531.720, 522.920 528.641, 529.286 516.581 C 530.892 513.539, 531.448 510.697, 531.470 505.422 C 531.496 499.265, 531.107 497.708, 528.485 493.466 C 522.842 484.339, 510.953 480.567, 501.444 484.886 M 353.203 491.256 C 351.087 493.805, 350.734 497.944, 352.413 500.507 L 354.046 503 372.952 503 C 393.978 503, 395 502.702, 395 496.584 C 395 490.425, 393.567 490, 372.794 490 C 359.131 490, 353.970 490.331, 353.203 491.256 M 415.407 490.765 C 413.762 491.872, 412.924 497.669, 414 500.500 L 414.950 503 431.275 503 C 442.639 503, 447.965 502.635, 448.800 501.800 C 449.460 501.140, 450 498.755, 450 496.500 C 450 494.245, 449.460 491.860, 448.800 491.200 C 447.462 489.862, 417.334 489.470, 415.407 490.765 M 288.214 532.135 C 280.985 534.913, 273.810 542.233, 270.987 549.711 C 265.183 565.084, 273.231 583.201, 288.381 588.869 C 303.473 594.516, 320.448 588.296, 327.482 574.542 C 330.109 569.406, 330.498 567.595, 330.485 560.571 C 330.467 550.733, 328.373 545.608, 321.591 538.805 C 313.135 530.323, 299.844 527.667, 288.214 532.135 M 354.171 538.750 C 351.205 541.281, 350.897 546.755, 353.571 549.429 C 354.948 550.805, 360.157 551, 395.637 551 C 419.990 551, 436.857 550.612, 437.951 550.026 C 441.925 547.899, 441.545 540.025, 437.376 538.125 C 435.679 537.352, 422.586 537, 395.564 537 C 359.543 537, 356.048 537.148, 354.171 538.750 M 292.425 545.019 C 286.551 547.927, 283.678 552.297, 283.188 559.074 C 282.538 568.060, 287.274 574.824, 295.700 576.946 C 311.933 581.034, 323.807 560.887, 312.382 548.639 C 307.036 542.908, 299.464 541.534, 292.425 545.019 M 353.573 570.570 C 351.131 573.012, 350.512 577.039, 352.134 579.931 L 353.575 582.500 374.037 582.780 C 393.906 583.051, 394.551 582.997, 396.250 580.919 C 398.417 578.268, 398.499 574.158, 396.443 571.223 C 394.923 569.053, 394.416 569, 375.015 569 C 358.291 569, 354.894 569.249, 353.573 570.570 M 502.183 664.841 C 484.049 671.313, 478.962 695.273, 492.946 708.353 C 507.741 722.191, 532.102 716.217, 537.569 697.410 C 543.790 676.012, 523.417 657.262, 502.183 664.841 M 506.077 678.773 C 502.593 680.689, 499 686.015, 499 689.267 C 499 692.882, 501.963 698.007, 505.190 699.974 C 513.588 705.094, 524.273 699.431, 524.273 689.860 C 524.273 680.610, 514.059 674.386, 506.077 678.773 M 455.608 773.750 C 451.890 792.313, 448.608 808.513, 448.315 809.750 L 447.783 812 511.892 812 C 556.125 812, 576 811.673, 576 810.947 C 576 810.367, 573.299 797.430, 569.998 782.197 C 566.697 766.964, 563.291 751.237, 562.430 747.250 L 560.864 740 511.615 740 L 462.367 740 455.608 773.750" stroke="none" fill="#f1f5fa" fill-rule="evenodd"/></svg>